<svg width="48" height="48" viewBox="0 0 48 48" fill="none" xmlns="http://www.w3.org/2000/svg">
<rect width="48" height="48" rx="24" fill="#DFDFDF"/>
<path d="M26.9999 31C26.9999 31.7957 26.6838 32.5587 26.1212 33.1213C25.5586 33.6839 24.7955 34 23.9999 34C23.2042 34 22.4412 33.6839 21.8785 33.1213C21.3159 32.5587 20.9999 31.7957 20.9999 31M24.7209 17.003L23.2549 17C19.9109 16.992 17.0079 19.709 16.9849 23V26.79C16.9849 27.58 16.8849 28.351 16.4539 29.008L16.1669 29.446C15.7299 30.11 16.1999 31 16.9849 31H31.0149C31.7999 31 32.2689 30.11 31.8329 29.446L31.5459 29.008C31.1159 28.351 31.0149 27.579 31.0149 26.789V23.001C30.9749 19.709 28.0649 17.011 24.7209 17.003V17.003Z" stroke="black" stroke-width="2" stroke-linecap="round" stroke-linejoin="round"/>
<path d="M24 14C24.5304 14 25.0391 14.2107 25.4142 14.5858C25.7893 14.9609 26 15.4696 26 16V17H22V16C22 15.4696 22.2107 14.9609 22.5858 14.5858C22.9609 14.2107 23.4696 14 24 14Z" stroke="black" stroke-width="2" stroke-linecap="round" stroke-linejoin="round"/>
</svg>
