<svg width="20" height="23" viewBox="0 0 20 23" fill="none" xmlns="http://www.w3.org/2000/svg">
<path d="M17.0738 4.812C16.9219 4.73345 16.774 4.64734 16.6308 4.554C16.2144 4.27872 15.8327 3.9544 15.4938 3.588C14.6448 2.617 14.3278 1.632 14.2118 0.943H14.2158C14.1188 0.37 14.1588 0 14.1658 0H10.3008V14.943C10.3008 15.143 10.3008 15.342 10.2928 15.538C10.2928 15.562 10.2898 15.584 10.2888 15.611C10.2888 15.621 10.2888 15.633 10.2858 15.644V15.653C10.2452 16.189 10.0735 16.7068 9.78574 17.1609C9.49802 17.615 9.10311 17.9914 8.63576 18.257C8.14819 18.5344 7.59671 18.6798 7.03576 18.679C5.23576 18.679 3.77576 17.211 3.77576 15.398C3.77576 13.584 5.23576 12.116 7.03576 12.116C7.37676 12.116 7.71576 12.17 8.03976 12.276L8.04476 8.34C7.06077 8.21305 6.06115 8.29147 5.109 8.5703C4.15684 8.84913 3.27283 9.32232 2.51276 9.96C1.84661 10.5385 1.28655 11.2289 0.857759 12C0.694759 12.281 0.0787593 13.412 0.00475934 15.246C-0.0422407 16.286 0.270759 17.366 0.419759 17.811V17.821C0.512759 18.083 0.876759 18.979 1.46876 19.734C1.94615 20.34 2.51021 20.8724 3.14276 21.314V21.304L3.15176 21.314C5.02176 22.584 7.09676 22.501 7.09676 22.501C7.45576 22.486 8.65876 22.501 10.0248 21.854C11.5398 21.136 12.4018 20.067 12.4018 20.067C12.9529 19.4281 13.3911 18.7 13.6978 17.914C14.0478 16.994 14.1638 15.892 14.1638 15.452V7.523C14.2108 7.551 14.8358 7.964 14.8358 7.964C14.8358 7.964 15.7358 8.541 17.1388 8.916C18.1448 9.183 19.5018 9.24 19.5018 9.24V5.403C19.0268 5.455 18.0618 5.305 17.0728 4.813L17.0738 4.812Z" fill="black"/>
</svg>
