<svg width="20" height="20" viewBox="0 0 20 20" fill="none" xmlns="http://www.w3.org/2000/svg">
<path d="M19.9289 14.6278C19.7902 14.2433 19.5252 14.0377 19.2239 13.8676C19.174 13.838 19.1227 13.8109 19.0702 13.7864L18.7964 13.6455C17.8564 13.1392 17.1227 12.5008 16.6139 11.7444C16.4692 11.5317 16.3437 11.3061 16.2389 11.0705C16.1964 10.9436 16.1989 10.8725 16.2289 10.8078C16.2602 10.7574 16.3015 10.7142 16.3502 10.6809C16.5114 10.5717 16.6777 10.4613 16.7902 10.3877C16.9927 10.2557 17.1514 10.1504 17.2539 10.0768C17.6402 9.80265 17.9102 9.51076 18.0789 9.18586C18.1965 8.96113 18.2651 8.71334 18.28 8.45931C18.2949 8.20529 18.2557 7.95098 18.1652 7.71369C17.9089 7.0309 17.2739 6.60702 16.5039 6.60702C16.2983 6.60659 16.0935 6.63434 15.8952 6.68951C15.9027 6.22248 15.8927 5.72879 15.8515 5.24399C15.7065 3.5383 15.1177 2.64484 14.5052 1.93159C14.1125 1.48511 13.6501 1.10735 13.1365 0.813503C12.2052 0.274129 11.1502 0 9.99898 0C8.84898 0 7.79898 0.274129 6.86774 0.813503C6.35274 1.10794 5.89024 1.48613 5.49649 1.93413C4.884 2.64738 4.2965 3.5421 4.15025 5.24653C4.109 5.73133 4.10025 6.22628 4.10525 6.69078C3.90691 6.63563 3.70215 6.60788 3.4965 6.60829C2.72776 6.60829 2.09151 7.03344 1.83651 7.71623C1.7455 7.95354 1.70587 8.20796 1.72032 8.46221C1.73477 8.71645 1.80296 8.96456 1.92026 9.18967C2.09026 9.51456 2.36026 9.80646 2.74526 10.0793C2.84776 10.1529 3.00775 10.257 3.209 10.3915L3.63275 10.672C3.68713 10.7085 3.7335 10.7561 3.769 10.8116C3.8015 10.8789 3.80275 10.9512 3.754 11.087C3.65063 11.3177 3.52722 11.5385 3.38525 11.7469C2.88776 12.4868 2.17526 13.1138 1.26526 13.6151C0.784014 13.874 0.282766 14.0466 0.0715173 14.6304C-0.088482 15.072 0.0165175 15.5733 0.421516 15.9947C0.570265 16.1533 0.742764 16.2866 0.932764 16.3881C1.32754 16.6083 1.74731 16.7788 2.18276 16.8957C2.27265 16.9191 2.35802 16.9577 2.43526 17.01C2.58276 17.142 2.56276 17.3399 2.75901 17.6293C2.85776 17.779 2.98401 17.9085 3.129 18.01C3.5415 18.3007 4.00525 18.3184 4.49775 18.3375C4.9415 18.3552 5.44524 18.3755 6.01899 18.5659C6.25649 18.6471 6.50524 18.802 6.79149 18.9822C7.47899 19.4111 8.42273 20 9.99898 20C11.5765 20 12.524 19.4086 13.219 18.9771C13.5027 18.7994 13.749 18.6471 13.9802 18.5697C14.5552 18.3768 15.059 18.3565 15.5027 18.34C15.994 18.321 16.4577 18.3019 16.8714 18.0126C17.0437 17.8902 17.1871 17.7307 17.2914 17.5455C17.4339 17.3019 17.4289 17.1305 17.5627 17.0125C17.6352 16.9624 17.7155 16.9251 17.8002 16.9021C18.2418 16.7847 18.6675 16.6125 19.0677 16.3894C19.2677 16.279 19.4502 16.1355 19.6039 15.9629L19.6089 15.9566C19.9889 15.5441 20.0839 15.0568 19.9289 14.6278V14.6278ZM18.5277 15.3918C17.6727 15.8716 17.1039 15.8195 16.6614 16.1089C16.2864 16.3538 16.5089 16.8831 16.2364 17.0734C15.9002 17.3095 14.9102 17.0582 13.6302 17.4872C12.574 17.8412 11.9002 18.8603 10.0015 18.8603C8.10273 18.8603 7.44524 17.8438 6.37149 17.4846C5.094 17.0557 4.1015 17.3069 3.7665 17.0721C3.494 16.8818 3.71525 16.3513 3.34025 16.1064C2.89776 15.817 2.32901 15.869 1.47526 15.3918C0.930264 15.0873 1.23901 14.8969 1.42026 14.808C4.51775 13.2864 5.0115 10.9372 5.03275 10.7621C5.06025 10.5514 5.089 10.3852 4.86025 10.1707C4.639 9.96256 3.65775 9.34577 3.38525 9.15286C2.93526 8.83305 2.73526 8.5145 2.88276 8.12234C2.98526 7.85075 3.234 7.74795 3.49525 7.74795C3.57808 7.74833 3.66063 7.75769 3.7415 7.77587C4.2365 7.88502 4.7165 8.13757 4.994 8.20484C5.02775 8.21372 5.0615 8.21753 5.0965 8.2188C5.244 8.2188 5.2965 8.14265 5.2865 7.97132C5.254 7.42179 5.17775 6.35066 5.26275 5.34932C5.38025 3.9736 5.81774 3.29082 6.33649 2.68799C6.58649 2.39736 7.75774 1.13967 9.99898 1.13967C12.239 1.13967 13.414 2.39228 13.6627 2.68164C14.1827 3.28447 14.6202 3.96726 14.7365 5.34425C14.8215 6.34431 14.7477 7.41545 14.7127 7.96497C14.7002 8.14519 14.7552 8.21245 14.9027 8.21245C14.9372 8.21234 14.9717 8.20808 15.0052 8.19976C15.2827 8.13123 15.764 7.87867 16.2577 7.7708C16.3385 7.75201 16.4211 7.74222 16.5039 7.74161C16.7664 7.74161 17.0152 7.84568 17.1164 8.116C17.2627 8.50815 17.0664 8.8267 16.6152 9.14652C16.3427 9.33942 15.3615 9.95622 15.1402 10.1644C14.9102 10.3788 14.9402 10.5451 14.9665 10.7558C14.989 10.9334 15.4827 13.2826 18.5789 14.803C18.7627 14.8956 19.0714 15.0847 18.5277 15.3918V15.3918Z" fill="black"/>
</svg>
