<svg width="20" height="17" viewBox="0 0 20 17" fill="none" xmlns="http://www.w3.org/2000/svg">
<path d="M20 2.01939C19.2645 2.35134 18.4641 2.59025 17.6397 2.68329C18.4956 2.15125 19.1366 1.31072 19.4424 0.319389C18.6392 0.819302 17.7593 1.16985 16.8417 1.35548C16.4582 0.926526 15.9944 0.5848 15.4792 0.351597C14.9639 0.118394 14.4083 -0.00128703 13.8469 1.04374e-05C11.5755 1.04374e-05 9.74883 1.92634 9.74883 4.29024C9.74883 4.6222 9.78729 4.95415 9.84978 5.27353C6.44874 5.08743 3.41546 3.38743 1.39887 0.784625C1.03143 1.44128 0.838874 2.18895 0.841245 2.94986C0.841245 4.43862 1.56472 5.75134 2.66795 6.52338C2.0178 6.49659 1.38287 6.30962 0.814806 5.97767V6.03048C0.814806 8.11524 2.22329 9.8429 4.10047 10.2402C3.74801 10.336 3.38543 10.385 3.02127 10.3861C2.75448 10.3861 2.5021 10.3584 2.24733 10.3207C2.76649 12.0207 4.27833 13.2555 6.0786 13.2957C4.67011 14.45 2.9059 15.129 0.990266 15.129C0.646557 15.129 0.329287 15.1164 0 15.0762C1.81709 16.2959 3.97308 17 6.29492 17C13.8325 17 17.957 10.4666 17.957 4.79572C17.957 4.60962 17.957 4.42353 17.945 4.23743C18.7429 3.62634 19.4424 2.86939 20 2.01939Z" fill="black"/>
</svg>
